<mxfile host="65bd71144e">
    <diagram id="SspJnY90TLb4_lbSzdJv" name="Page-1">
        <mxGraphModel dx="1278" dy="606" grid="1" gridSize="10" guides="1" tooltips="1" connect="1" arrows="1" fold="1" page="1" pageScale="1" pageWidth="1100" pageHeight="850" math="0" shadow="0">
            <root>
                <mxCell id="0"/>
                <mxCell id="75" value="Background" style="locked=1;" parent="0"/>
                <mxCell id="76" value="" style="rounded=0;whiteSpace=wrap;html=1;fontSize=18;fillColor=#333333;" parent="75" vertex="1">
                    <mxGeometry width="1090" height="830" as="geometry"/>
                </mxCell>
                <mxCell id="1" value="file-tree" parent="0"/>
                <mxCell id="85" value="" style="rounded=0;whiteSpace=wrap;html=1;fontSize=18;fillColor=#3F3F69;strokeColor=#0066CC;fontColor=#ffffff;dashed=1;opacity=70;" parent="1" vertex="1">
                    <mxGeometry x="845" y="10" width="235" height="290" as="geometry"/>
                </mxCell>
                <mxCell id="11" style="edgeStyle=orthogonalEdgeStyle;html=1;exitX=0.5;exitY=1;exitDx=0;exitDy=0;exitPerimeter=0;strokeColor=#E6E6E6;endArrow=none;endFill=0;fontColor=#FFFFFF;" parent="1" source="2" target="4" edge="1">
                    <mxGeometry relative="1" as="geometry"/>
                </mxCell>
                <mxCell id="2" value="" style="sketch=0;pointerEvents=1;shadow=0;dashed=0;html=1;strokeColor=none;labelPosition=center;verticalLabelPosition=bottom;verticalAlign=top;outlineConnect=0;align=center;shape=mxgraph.office.concepts.folder;fillColor=#2072B8;points=[[0.5,1,0,0,0]];fontColor=#FFFFFF;" parent="1" vertex="1">
                    <mxGeometry x="510" y="10" width="50" height="45" as="geometry"/>
                </mxCell>
                <mxCell id="18" style="edgeStyle=orthogonalEdgeStyle;html=1;exitX=0.5;exitY=1;exitDx=0;exitDy=0;exitPerimeter=0;strokeColor=#E6E6E6;endArrow=none;endFill=0;fontColor=#FFFFFF;" parent="1" source="4" target="13" edge="1">
                    <mxGeometry relative="1" as="geometry"/>
                </mxCell>
                <mxCell id="19" style="edgeStyle=orthogonalEdgeStyle;html=1;exitX=0.5;exitY=1;exitDx=0;exitDy=0;exitPerimeter=0;strokeColor=#E6E6E6;endArrow=none;endFill=0;fontColor=#FFFFFF;" parent="1" source="4" target="16" edge="1">
                    <mxGeometry relative="1" as="geometry"/>
                </mxCell>
                <mxCell id="4" value="" style="sketch=0;pointerEvents=1;shadow=0;dashed=0;html=1;strokeColor=none;labelPosition=center;verticalLabelPosition=bottom;verticalAlign=top;outlineConnect=0;align=center;shape=mxgraph.office.concepts.folder;fillColor=#CCCBCB;points=[[0.5,0,0,0,0],[0.5,1,0,0,0]];fontColor=#FFFFFF;" parent="1" vertex="1">
                    <mxGeometry x="355" y="92.5" width="50" height="45" as="geometry"/>
                </mxCell>
                <mxCell id="6" value="&lt;font style=&quot;font-size: 18px;&quot;&gt;java/frc/&lt;/font&gt;" style="text;html=1;align=center;verticalAlign=middle;resizable=0;points=[];autosize=1;strokeColor=none;fillColor=none;fontColor=#FFFFFF;" parent="1" vertex="1">
                    <mxGeometry x="265" y="92.5" width="90" height="40" as="geometry"/>
                </mxCell>
                <UserObject label="deploy/pathplanner/" link="./src/main/deploy/pathplanner" id="5">
                    <mxCell style="text;html=1;align=center;verticalAlign=middle;resizable=0;points=[];autosize=1;strokeColor=none;fillColor=none;fontColor=#FFFFFF;" parent="1" vertex="1">
                        <mxGeometry x="930" y="107.5" width="130" height="30" as="geometry"/>
                    </mxCell>
                </UserObject>
                <mxCell id="8" value="&lt;font style=&quot;font-size: 18px;&quot;&gt;&lt;b&gt;src/main/&lt;/b&gt;&lt;/font&gt;" style="text;html=1;align=center;verticalAlign=middle;resizable=0;points=[];autosize=1;strokeColor=none;fillColor=none;fontColor=#FFFFFF;" parent="1" vertex="1">
                    <mxGeometry x="410" y="15" width="100" height="40" as="geometry"/>
                </mxCell>
                <mxCell id="12" style="edgeStyle=orthogonalEdgeStyle;html=1;exitX=0.5;exitY=1;exitDx=0;exitDy=0;exitPerimeter=0;strokeColor=#E6E6E6;endArrow=none;endFill=0;fontColor=#FFFFFF;" parent="1" source="2" target="14" edge="1">
                    <mxGeometry relative="1" as="geometry">
                        <mxPoint x="545" y="65" as="sourcePoint"/>
                        <mxPoint x="725" y="92.5" as="targetPoint"/>
                    </mxGeometry>
                </mxCell>
                <mxCell id="13" value="" style="sketch=0;pointerEvents=1;shadow=0;dashed=0;html=1;strokeColor=#432D57;fillColor=#76608a;labelPosition=center;verticalLabelPosition=bottom;verticalAlign=top;outlineConnect=0;align=center;shape=mxgraph.office.concepts.folder;points=[[0.5,1,0,0,0]];fontColor=#ffffff;" parent="1" vertex="1">
                    <mxGeometry x="240" y="170" width="50" height="45" as="geometry"/>
                </mxCell>
                <UserObject label="" link="./src/main/deploy/pathplanner" id="14">
                    <mxCell style="sketch=0;pointerEvents=1;shadow=0;dashed=0;html=1;strokeColor=none;labelPosition=center;verticalLabelPosition=bottom;verticalAlign=top;outlineConnect=0;align=center;shape=mxgraph.office.concepts.folder;fillColor=#7FBA42;points=[[0.5,1,0,0,0]];fontColor=#FFFFFF;" parent="1" vertex="1">
                        <mxGeometry x="880" y="92.5" width="50" height="45" as="geometry"/>
                    </mxCell>
                </UserObject>
                <mxCell id="15" value="&lt;font style=&quot;font-size: 18px;&quot;&gt;lib/&lt;/font&gt;" style="text;html=1;align=center;verticalAlign=middle;resizable=0;points=[];autosize=1;strokeColor=none;fillColor=none;fontColor=#FFFFFF;" parent="1" vertex="1">
                    <mxGeometry x="190" y="175" width="50" height="40" as="geometry"/>
                </mxCell>
                <mxCell id="16" value="" style="sketch=0;pointerEvents=1;shadow=0;dashed=0;html=1;strokeColor=#432D57;fillColor=#76608a;labelPosition=center;verticalLabelPosition=bottom;verticalAlign=top;outlineConnect=0;align=center;shape=mxgraph.office.concepts.folder;points=[[0.5,1,0,0,0]];fontColor=#ffffff;" parent="1" vertex="1">
                    <mxGeometry x="470" y="170" width="50" height="45" as="geometry"/>
                </mxCell>
                <mxCell id="17" value="&lt;font style=&quot;font-size: 18px;&quot;&gt;robot/&lt;/font&gt;" style="text;html=1;align=center;verticalAlign=middle;resizable=0;points=[];autosize=1;strokeColor=none;fillColor=none;fontColor=#FFFFFF;" parent="1" vertex="1">
                    <mxGeometry x="520" y="175" width="70" height="40" as="geometry"/>
                </mxCell>
                <UserObject label="" link="./src/main/deploy/pathplanner/generatedJSON" id="20">
                    <mxCell style="sketch=0;pointerEvents=1;shadow=0;dashed=0;html=1;strokeColor=#3A5431;labelPosition=center;verticalLabelPosition=bottom;verticalAlign=top;outlineConnect=0;align=center;shape=mxgraph.office.concepts.folder;fillColor=#6d8764;fontColor=#FFFFFF;points=[[0,0.5,0,0,0]];" parent="1" vertex="1">
                        <mxGeometry x="922" y="160" width="50" height="45" as="geometry"/>
                    </mxCell>
                </UserObject>
                <mxCell id="21" style="edgeStyle=orthogonalEdgeStyle;html=1;strokeColor=#E6E6E6;endArrow=none;endFill=0;entryX=0;entryY=0.5;entryDx=0;entryDy=0;entryPerimeter=0;exitX=0.5;exitY=1;exitDx=0;exitDy=0;exitPerimeter=0;fontColor=#FFFFFF;" parent="1" source="14" target="20" edge="1">
                    <mxGeometry relative="1" as="geometry">
                        <mxPoint x="860" y="160" as="sourcePoint"/>
                        <mxPoint x="915" y="102.5" as="targetPoint"/>
                    </mxGeometry>
                </mxCell>
                <UserObject label="generatedJSON/" link="./src/main/deploy/pathplanner/generatedJSON" id="22">
                    <mxCell style="text;html=1;align=center;verticalAlign=middle;resizable=0;points=[];autosize=1;strokeColor=none;fillColor=none;fontColor=#FFFFFF;" parent="1" vertex="1">
                        <mxGeometry x="972" y="175" width="110" height="30" as="geometry"/>
                    </mxCell>
                </UserObject>
                <mxCell id="27" value="" style="sketch=0;pointerEvents=1;shadow=0;dashed=0;html=1;strokeColor=#666666;fillColor=#f5f5f5;labelPosition=center;verticalLabelPosition=bottom;verticalAlign=top;outlineConnect=0;align=center;shape=mxgraph.office.concepts.documents;points=[[0,0.5,0,0,0]];fontColor=#FFFFFF;" parent="1" vertex="1">
                    <mxGeometry x="922" y="220.5" width="46" height="54" as="geometry"/>
                </mxCell>
                <mxCell id="28" style="edgeStyle=orthogonalEdgeStyle;html=1;strokeColor=#E6E6E6;endArrow=none;endFill=0;exitX=0.5;exitY=1;exitDx=0;exitDy=0;exitPerimeter=0;entryX=0;entryY=0.5;entryDx=0;entryDy=0;entryPerimeter=0;fontColor=#FFFFFF;" parent="1" source="14" target="27" edge="1">
                    <mxGeometry relative="1" as="geometry">
                        <mxPoint x="850" y="179" as="sourcePoint"/>
                        <mxPoint x="880" y="220" as="targetPoint"/>
                    </mxGeometry>
                </mxCell>
                <mxCell id="29" value=".path files" style="text;html=1;align=center;verticalAlign=middle;resizable=0;points=[];autosize=1;strokeColor=none;fillColor=none;fontColor=#FFFFFF;" parent="1" vertex="1">
                    <mxGeometry x="970" y="244.5" width="70" height="30" as="geometry"/>
                </mxCell>
                <UserObject label="" link="./src/main/java/frc/lib/dashboard" id="30">
                    <mxCell style="sketch=0;pointerEvents=1;shadow=0;dashed=0;html=1;strokeColor=#314354;fillColor=#647687;labelPosition=center;verticalLabelPosition=bottom;verticalAlign=top;outlineConnect=0;align=center;shape=mxgraph.office.concepts.folder;fontColor=#FFFFFF;points=[[1,0.5,0,0,0]];" parent="1" vertex="1">
                        <mxGeometry x="190" y="250" width="50" height="45" as="geometry"/>
                    </mxCell>
                </UserObject>
                <UserObject label="&lt;b&gt;dashboard/&lt;/b&gt;" link="./src/main/java/frc/lib/dashboard" id="31">
                    <mxCell style="text;html=1;align=right;verticalAlign=middle;resizable=0;points=[];autosize=1;strokeColor=none;fillColor=none;fontColor=#FFFFFF;" parent="1" vertex="1">
                        <mxGeometry x="120" y="232.5" width="90" height="30" as="geometry"/>
                    </mxCell>
                </UserObject>
                <mxCell id="32" style="edgeStyle=orthogonalEdgeStyle;html=1;strokeColor=#E6E6E6;endArrow=none;endFill=0;entryX=0.5;entryY=1;entryDx=0;entryDy=0;entryPerimeter=0;exitX=1;exitY=0.5;exitDx=0;exitDy=0;exitPerimeter=0;fontColor=#FFFFFF;" parent="1" source="30" target="13" edge="1">
                    <mxGeometry relative="1" as="geometry">
                        <mxPoint x="270" y="280" as="sourcePoint"/>
                        <mxPoint x="275" y="180" as="targetPoint"/>
                    </mxGeometry>
                </mxCell>
                <mxCell id="33" value="&lt;div style=&quot;&quot;&gt;&lt;span style=&quot;background-color: initial;&quot;&gt;Classes used to display&lt;/span&gt;&lt;/div&gt;&lt;div style=&quot;&quot;&gt;&lt;span style=&quot;background-color: initial;&quot;&gt;data on dashboard&amp;nbsp;&lt;/span&gt;&lt;span style=&quot;background-color: initial;&quot;&gt;software&lt;/span&gt;&lt;/div&gt;" style="text;html=1;align=right;verticalAlign=middle;resizable=0;points=[];autosize=1;strokeColor=none;fillColor=none;fontColor=#FFFFFF;" parent="1" vertex="1">
                    <mxGeometry x="10" y="260" width="170" height="40" as="geometry"/>
                </mxCell>
                <UserObject label="" link="./src/main/java/frc/lib/Joystick" id="34">
                    <mxCell style="sketch=0;pointerEvents=1;shadow=0;dashed=0;html=1;strokeColor=#314354;fillColor=#647687;labelPosition=center;verticalLabelPosition=bottom;verticalAlign=top;outlineConnect=0;align=center;shape=mxgraph.office.concepts.folder;fontColor=#FFFFFF;points=[[1,0.5,0,0,0]];" parent="1" vertex="1">
                        <mxGeometry x="190" y="330" width="50" height="45" as="geometry"/>
                    </mxCell>
                </UserObject>
                <UserObject label="&lt;b&gt;joystick/&lt;/b&gt;" link="./src/main/java/frc/lib/joystick" id="35">
                    <mxCell style="text;html=1;align=right;verticalAlign=middle;resizable=0;points=[];autosize=1;strokeColor=none;fillColor=none;fontColor=#FFFFFF;" parent="1" vertex="1">
                        <mxGeometry x="140" y="312.5" width="70" height="30" as="geometry"/>
                    </mxCell>
                </UserObject>
                <mxCell id="36" value="&lt;div style=&quot;&quot;&gt;&lt;span style=&quot;background-color: initial;&quot;&gt;Classes for interacting with&lt;/span&gt;&lt;/div&gt;&lt;div style=&quot;&quot;&gt;&lt;span style=&quot;background-color: initial;&quot;&gt;and processing joysticks&lt;/span&gt;&lt;/div&gt;" style="text;html=1;align=right;verticalAlign=middle;resizable=0;points=[];autosize=1;strokeColor=none;fillColor=none;fontColor=#FFFFFF;" parent="1" vertex="1">
                    <mxGeometry x="10" y="342.5" width="170" height="40" as="geometry"/>
                </mxCell>
                <mxCell id="38" style="edgeStyle=orthogonalEdgeStyle;html=1;strokeColor=#E6E6E6;endArrow=none;endFill=0;entryX=0.5;entryY=1;entryDx=0;entryDy=0;entryPerimeter=0;exitX=1;exitY=0.5;exitDx=0;exitDy=0;exitPerimeter=0;fontColor=#FFFFFF;" parent="1" source="34" target="13" edge="1">
                    <mxGeometry relative="1" as="geometry">
                        <mxPoint x="250" y="282.5" as="sourcePoint"/>
                        <mxPoint x="275" y="225" as="targetPoint"/>
                    </mxGeometry>
                </mxCell>
                <UserObject label="" link="./src/main/java/frc/lib/thirdparty" id="39">
                    <mxCell style="sketch=0;pointerEvents=1;shadow=0;dashed=0;html=1;strokeColor=#314354;fillColor=#647687;labelPosition=center;verticalLabelPosition=bottom;verticalAlign=top;outlineConnect=0;align=center;shape=mxgraph.office.concepts.folder;fontColor=#FFFFFF;points=[[1,0.5,0,0,0]];" parent="1" vertex="1">
                        <mxGeometry x="190" y="487.5" width="50" height="45" as="geometry"/>
                    </mxCell>
                </UserObject>
                <UserObject label="&lt;b&gt;thirdparty/&lt;/b&gt;" link="./src/main/java/frc/lib/thirdparty" id="40">
                    <mxCell style="text;html=1;align=right;verticalAlign=middle;resizable=0;points=[];autosize=1;strokeColor=none;fillColor=none;fontColor=#FFFFFF;" parent="1" vertex="1">
                        <mxGeometry x="130" y="470" width="80" height="30" as="geometry"/>
                    </mxCell>
                </UserObject>
                <mxCell id="41" value="&lt;div style=&quot;&quot;&gt;Code from other FRC teams:&lt;/div&gt;&lt;div style=&quot;&quot;&gt;&amp;nbsp;credit where credit is due&lt;/div&gt;" style="text;html=1;align=right;verticalAlign=middle;resizable=0;points=[];autosize=1;strokeColor=none;fillColor=none;fontColor=#FFFFFF;" parent="1" vertex="1">
                    <mxGeometry y="500" width="180" height="40" as="geometry"/>
                </mxCell>
                <mxCell id="42" style="edgeStyle=orthogonalEdgeStyle;html=1;strokeColor=#E6E6E6;endArrow=none;endFill=0;entryX=0.5;entryY=1;entryDx=0;entryDy=0;entryPerimeter=0;exitX=1;exitY=0.5;exitDx=0;exitDy=0;exitPerimeter=0;fontColor=#FFFFFF;" parent="1" source="39" target="13" edge="1">
                    <mxGeometry relative="1" as="geometry">
                        <mxPoint x="250" y="362.5" as="sourcePoint"/>
                        <mxPoint x="275" y="225" as="targetPoint"/>
                    </mxGeometry>
                </mxCell>
                <UserObject label="" link="./src/main/java/frc/lib/utility" id="43">
                    <mxCell style="sketch=0;pointerEvents=1;shadow=0;dashed=0;html=1;strokeColor=#314354;fillColor=#647687;labelPosition=center;verticalLabelPosition=bottom;verticalAlign=top;outlineConnect=0;align=center;shape=mxgraph.office.concepts.folder;fontColor=#FFFFFF;points=[[1,0.5,0,0,0]];" parent="1" vertex="1">
                        <mxGeometry x="190" y="567.5" width="50" height="45" as="geometry"/>
                    </mxCell>
                </UserObject>
                <UserObject label="&lt;b&gt;utility/&lt;/b&gt;" link="./src/main/java/frc/lib/utility" id="44">
                    <mxCell style="text;html=1;align=right;verticalAlign=middle;resizable=0;points=[];autosize=1;strokeColor=none;fillColor=none;fontColor=#FFFFFF;" parent="1" vertex="1">
                        <mxGeometry x="150" y="550" width="60" height="30" as="geometry"/>
                    </mxCell>
                </UserObject>
                <mxCell id="45" value="&lt;div style=&quot;&quot;&gt;Miscellaneous support&lt;/div&gt;&lt;div style=&quot;&quot;&gt;classes and functions&lt;/div&gt;" style="text;html=1;align=right;verticalAlign=middle;resizable=0;points=[];autosize=1;strokeColor=none;fillColor=none;fontColor=#FFFFFF;" parent="1" vertex="1">
                    <mxGeometry x="40" y="580" width="140" height="40" as="geometry"/>
                </mxCell>
                <mxCell id="46" style="edgeStyle=orthogonalEdgeStyle;html=1;strokeColor=#E6E6E6;endArrow=none;endFill=0;entryX=0.5;entryY=1;entryDx=0;entryDy=0;entryPerimeter=0;exitX=1;exitY=0.5;exitDx=0;exitDy=0;exitPerimeter=0;fontColor=#FFFFFF;" parent="1" source="43" target="13" edge="1">
                    <mxGeometry relative="1" as="geometry">
                        <mxPoint x="250" y="442.5" as="sourcePoint"/>
                        <mxPoint x="275" y="225" as="targetPoint"/>
                    </mxGeometry>
                </mxCell>
                <UserObject label="" link="./src/main/java/frc/robot/autos" id="47">
                    <mxCell style="sketch=0;pointerEvents=1;shadow=0;dashed=0;html=1;strokeColor=#314354;fillColor=#647687;labelPosition=center;verticalLabelPosition=bottom;verticalAlign=top;outlineConnect=0;align=center;shape=mxgraph.office.concepts.folder;fontColor=#FFFFFF;points=[[0,0.5,0,0,0]];" parent="1" vertex="1">
                        <mxGeometry x="520" y="250" width="50" height="45" as="geometry"/>
                    </mxCell>
                </UserObject>
                <mxCell id="48" style="edgeStyle=orthogonalEdgeStyle;html=1;strokeColor=#E6E6E6;endArrow=none;endFill=0;exitX=0.5;exitY=1;exitDx=0;exitDy=0;exitPerimeter=0;entryX=0;entryY=0.5;entryDx=0;entryDy=0;entryPerimeter=0;fontColor=#FFFFFF;" parent="1" source="16" target="47" edge="1">
                    <mxGeometry relative="1" as="geometry">
                        <mxPoint x="490" y="250" as="sourcePoint"/>
                        <mxPoint x="460" y="300" as="targetPoint"/>
                    </mxGeometry>
                </mxCell>
                <UserObject label="&lt;b&gt;autos/&lt;/b&gt;" link="./src/main/java/frc/robot/autos" id="49">
                    <mxCell style="text;html=1;align=left;verticalAlign=middle;resizable=0;points=[];autosize=1;strokeColor=none;fillColor=none;fontColor=#FFFFFF;" parent="1" vertex="1">
                        <mxGeometry x="580" y="232.5" width="60" height="30" as="geometry"/>
                    </mxCell>
                </UserObject>
                <mxCell id="50" value="&lt;div style=&quot;&quot;&gt;&lt;span style=&quot;background-color: initial;&quot;&gt;Classes used to implement&lt;br&gt;&lt;/span&gt;&lt;/div&gt;&lt;div style=&quot;&quot;&gt;&lt;span style=&quot;background-color: initial;&quot;&gt;autonomous routines.&lt;/span&gt;&lt;/div&gt;" style="text;html=1;align=left;verticalAlign=middle;resizable=0;points=[];autosize=1;strokeColor=none;fillColor=none;fontColor=#FFFFFF;" parent="1" vertex="1">
                    <mxGeometry x="580" y="262.5" width="170" height="40" as="geometry"/>
                </mxCell>
                <UserObject label="" link="./src/main/java/frc/robot/commands" id="51">
                    <mxCell style="sketch=0;pointerEvents=1;shadow=0;dashed=0;html=1;strokeColor=#314354;fillColor=#647687;labelPosition=center;verticalLabelPosition=bottom;verticalAlign=top;outlineConnect=0;align=center;shape=mxgraph.office.concepts.folder;fontColor=#FFFFFF;points=[[0,0.5,0,0,0]];" parent="1" vertex="1">
                        <mxGeometry x="520" y="330" width="50" height="45" as="geometry"/>
                    </mxCell>
                </UserObject>
                <UserObject label="&lt;b&gt;commands/&lt;/b&gt;" link="./src/main/java/frc/robot/commands" id="52">
                    <mxCell style="text;html=1;align=left;verticalAlign=middle;resizable=0;points=[];autosize=1;strokeColor=none;fillColor=none;fontColor=#FFFFFF;" parent="1" vertex="1">
                        <mxGeometry x="580" y="312.5" width="90" height="30" as="geometry"/>
                    </mxCell>
                </UserObject>
                <mxCell id="53" value="&lt;div style=&quot;&quot;&gt;&lt;span style=&quot;background-color: initial;&quot;&gt;Commands that implement basic robot&lt;br&gt;&lt;/span&gt;&lt;/div&gt;&lt;div style=&quot;&quot;&gt;&lt;span style=&quot;background-color: initial;&quot;&gt;functions like driving, shooting, etc.&lt;/span&gt;&lt;/div&gt;" style="text;html=1;align=left;verticalAlign=middle;resizable=0;points=[];autosize=1;strokeColor=none;fillColor=none;fontColor=#FFFFFF;" parent="1" vertex="1">
                    <mxGeometry x="580" y="342.5" width="230" height="40" as="geometry"/>
                </mxCell>
                <UserObject label="" link="./src/main/java/frc/robot/subsystems" id="54">
                    <mxCell style="sketch=0;pointerEvents=1;shadow=0;dashed=0;html=1;strokeColor=#314354;fillColor=#647687;labelPosition=center;verticalLabelPosition=bottom;verticalAlign=top;outlineConnect=0;align=center;shape=mxgraph.office.concepts.folder;fontColor=#FFFFFF;points=[[0,0.51,0,0,0],[0.5,1,0,0,0]];" parent="1" vertex="1">
                        <mxGeometry x="520" y="410" width="50" height="45" as="geometry"/>
                    </mxCell>
                </UserObject>
                <UserObject label="&lt;b&gt;subsystems/&lt;/b&gt;" link="./src/main/java/frc/robot/subsystems" id="55">
                    <mxCell style="text;html=1;align=left;verticalAlign=middle;resizable=0;points=[];autosize=1;strokeColor=none;fillColor=none;fontColor=#FFFFFF;" parent="1" vertex="1">
                        <mxGeometry x="580" y="392.5" width="100" height="30" as="geometry"/>
                    </mxCell>
                </UserObject>
                <mxCell id="56" value="&lt;div style=&quot;&quot;&gt;&lt;span style=&quot;background-color: initial;&quot;&gt;Subsystems that interact with robot hardware&lt;/span&gt;&lt;/div&gt;&lt;div style=&quot;&quot;&gt;&lt;span style=&quot;background-color: initial;&quot;&gt;components (e.g. motors, serve drive, etc.)&amp;nbsp;&lt;/span&gt;&lt;br&gt;&lt;/div&gt;" style="text;html=1;align=left;verticalAlign=middle;resizable=0;points=[];autosize=1;strokeColor=none;fillColor=none;fontColor=#FFFFFF;" parent="1" vertex="1">
                    <mxGeometry x="580" y="422.5" width="260" height="40" as="geometry"/>
                </mxCell>
                <UserObject label="" link="./src/main/java/frc/robot/subsystems/Dashboard" id="57">
                    <mxCell style="sketch=0;pointerEvents=1;shadow=0;dashed=0;html=1;strokeColor=#BD7000;fillColor=#f0a30a;labelPosition=center;verticalLabelPosition=bottom;verticalAlign=top;outlineConnect=0;align=center;shape=mxgraph.office.concepts.folder;points=[[0,0.5,0,0,0]];fontColor=#FFFFFF;" parent="1" vertex="1">
                        <mxGeometry x="580" y="490" width="50" height="45" as="geometry"/>
                    </mxCell>
                </UserObject>
                <UserObject label="&lt;b&gt;dashboard/&lt;/b&gt;" link="./src/main/java/frc/robot/subsystems/dashboard" id="58">
                    <mxCell style="text;html=1;align=left;verticalAlign=middle;resizable=0;points=[];autosize=1;strokeColor=none;fillColor=none;fontColor=#FFFFFF;" parent="1" vertex="1">
                        <mxGeometry x="640" y="480" width="90" height="30" as="geometry"/>
                    </mxCell>
                </UserObject>
                <mxCell id="59" value="&lt;div style=&quot;&quot;&gt;A subsystem that initializes and updates the&lt;/div&gt;&lt;div style=&quot;&quot;&gt;Dashboard tabs exposed by the robot&lt;/div&gt;" style="text;html=1;align=left;verticalAlign=middle;resizable=0;points=[];autosize=1;strokeColor=none;fillColor=none;fontColor=#FFFFFF;" parent="1" vertex="1">
                    <mxGeometry x="640" y="502.5" width="260" height="40" as="geometry"/>
                </mxCell>
                <mxCell id="63" value="" style="sketch=0;pointerEvents=1;shadow=0;dashed=0;html=1;strokeColor=#BD7000;fillColor=#f0a30a;labelPosition=center;verticalLabelPosition=bottom;verticalAlign=top;outlineConnect=0;align=center;shape=mxgraph.office.concepts.folder;points=[[0,0.5,0,0,0]];fontColor=#FFFFFF;" parent="1" vertex="1">
                    <mxGeometry x="580" y="560" width="50" height="45" as="geometry"/>
                </mxCell>
                <mxCell id="64" value="&lt;b&gt;Heimdall/&lt;/b&gt;" style="text;html=1;align=left;verticalAlign=middle;resizable=0;points=[];autosize=1;strokeColor=none;fillColor=none;fontColor=#FFFFFF;" parent="1" vertex="1">
                    <mxGeometry x="640" y="550" width="80" height="30" as="geometry"/>
                </mxCell>
                <mxCell id="65" value="&lt;div style=&quot;&quot;&gt;Camera-based vision processing and April&lt;/div&gt;&lt;div style=&quot;&quot;&gt;Tags pose estimation using&amp;nbsp;&lt;span style=&quot;background-color: initial;&quot;&gt;PhotonVision&lt;/span&gt;&lt;/div&gt;" style="text;html=1;align=left;verticalAlign=middle;resizable=0;points=[];autosize=1;strokeColor=none;fillColor=none;fontColor=#FFFFFF;" parent="1" vertex="1">
                    <mxGeometry x="640" y="572.5" width="250" height="40" as="geometry"/>
                </mxCell>
                <UserObject label="" link="./src/main/java/frc/robot/subsystems/Intake" id="66">
                    <mxCell style="sketch=0;pointerEvents=1;shadow=0;dashed=0;html=1;strokeColor=#BD7000;fillColor=#f0a30a;labelPosition=center;verticalLabelPosition=bottom;verticalAlign=top;outlineConnect=0;align=center;shape=mxgraph.office.concepts.folder;points=[[0,0.5,0,0,0]];fontColor=#FFFFFF;" parent="1" vertex="1">
                        <mxGeometry x="580" y="630" width="50" height="45" as="geometry"/>
                    </mxCell>
                </UserObject>
                <UserObject label="&lt;b&gt;Intake/&lt;/b&gt;" link="./src/main/java/frc/robot/subsystems/intake" id="67">
                    <mxCell style="text;html=1;align=left;verticalAlign=middle;resizable=0;points=[];autosize=1;strokeColor=none;fillColor=none;fontColor=#FFFFFF;" parent="1" vertex="1">
                        <mxGeometry x="640" y="620" width="60" height="30" as="geometry"/>
                    </mxCell>
                </UserObject>
                <mxCell id="68" value="&lt;div style=&quot;&quot;&gt;A subsystem to drive compliant&amp;nbsp;&lt;span style=&quot;background-color: initial;&quot;&gt;wheels on&lt;/span&gt;&lt;/div&gt;&lt;div style=&quot;&quot;&gt;&lt;span style=&quot;background-color: initial;&quot;&gt;the intake/shooter mechanism&lt;/span&gt;&lt;/div&gt;" style="text;html=1;align=left;verticalAlign=middle;resizable=0;points=[];autosize=1;strokeColor=none;fillColor=none;fontColor=#FFFFFF;" parent="1" vertex="1">
                    <mxGeometry x="640" y="642.5" width="250" height="40" as="geometry"/>
                </mxCell>
                <UserObject label="" link="./src/main/java/frc/robot/subsystems/ShooterPivot" id="69">
                    <mxCell style="sketch=0;pointerEvents=1;shadow=0;dashed=0;html=1;strokeColor=#BD7000;fillColor=#f0a30a;labelPosition=center;verticalLabelPosition=bottom;verticalAlign=top;outlineConnect=0;align=center;shape=mxgraph.office.concepts.folder;points=[[0,0.5,0,0,0]];fontColor=#FFFFFF;" parent="1" vertex="1">
                        <mxGeometry x="580" y="700" width="50" height="45" as="geometry"/>
                    </mxCell>
                </UserObject>
                <UserObject label="&lt;b&gt;Shooter&lt;/b&gt;" link="./src/main/java/frc/robot/subsystems/shooter" id="70">
                    <mxCell style="text;html=1;align=left;verticalAlign=middle;resizable=0;points=[];autosize=1;strokeColor=none;fillColor=none;fontColor=#FFFFFF;" parent="1" vertex="1">
                        <mxGeometry x="640" y="690" width="70" height="30" as="geometry"/>
                    </mxCell>
                </UserObject>
                <mxCell id="71" value="&lt;div style=&quot;&quot;&gt;A subsystem for controlling the pivot angle&lt;/div&gt;&lt;div style=&quot;&quot;&gt;of the intake/shooter mechanism&lt;/div&gt;" style="text;html=1;align=left;verticalAlign=middle;resizable=0;points=[];autosize=1;strokeColor=none;fillColor=none;fontColor=#FFFFFF;" parent="1" vertex="1">
                    <mxGeometry x="640" y="712.5" width="250" height="40" as="geometry"/>
                </mxCell>
                <UserObject label="" link="./src/main/java/frc/robot/subsystems/SwerveDrivebase" id="72">
                    <mxCell style="sketch=0;pointerEvents=1;shadow=0;dashed=0;html=1;strokeColor=#BD7000;fillColor=#f0a30a;labelPosition=center;verticalLabelPosition=bottom;verticalAlign=top;outlineConnect=0;align=center;shape=mxgraph.office.concepts.folder;points=[[0,0.5,0,0,0]];fontColor=#FFFFFF;" parent="1" vertex="1">
                        <mxGeometry x="580" y="770" width="50" height="45" as="geometry"/>
                    </mxCell>
                </UserObject>
                <UserObject label="&lt;b&gt;SwerveCTRE&lt;/b&gt;" link="./src/main/java/frc/robot/subsystems/swerveCTRE" id="73">
                    <mxCell style="text;html=1;align=left;verticalAlign=middle;resizable=0;points=[];autosize=1;strokeColor=none;fillColor=none;fontColor=#FFFFFF;" parent="1" vertex="1">
                        <mxGeometry x="640" y="760" width="100" height="30" as="geometry"/>
                    </mxCell>
                </UserObject>
                <mxCell id="74" value="&lt;div style=&quot;&quot;&gt;A subsystem for controlling the robot's SDS Mk4i&lt;/div&gt;&lt;div style=&quot;&quot;&gt;&lt;span style=&quot;background-color: initial;&quot;&gt;swerve drive using the CTRE Phoenix 6 library.&lt;/span&gt;&lt;/div&gt;" style="text;html=1;align=left;verticalAlign=middle;resizable=0;points=[];autosize=1;strokeColor=none;fillColor=none;fontColor=#FFFFFF;" parent="1" vertex="1">
                    <mxGeometry x="640" y="782.5" width="280" height="40" as="geometry"/>
                </mxCell>
                <mxCell id="77" style="edgeStyle=orthogonalEdgeStyle;html=1;strokeColor=#E6E6E6;endArrow=none;endFill=0;exitX=0.5;exitY=1;exitDx=0;exitDy=0;exitPerimeter=0;entryX=0;entryY=0.5;entryDx=0;entryDy=0;entryPerimeter=0;fontColor=#FFFFFF;" parent="1" source="16" target="51" edge="1">
                    <mxGeometry relative="1" as="geometry">
                        <mxPoint x="505" y="225" as="sourcePoint"/>
                        <mxPoint x="530" y="282.5" as="targetPoint"/>
                    </mxGeometry>
                </mxCell>
                <mxCell id="78" style="edgeStyle=orthogonalEdgeStyle;html=1;strokeColor=#E6E6E6;endArrow=none;endFill=0;exitX=0.5;exitY=1;exitDx=0;exitDy=0;exitPerimeter=0;entryX=0;entryY=0.5;entryDx=0;entryDy=0;entryPerimeter=0;fontColor=#FFFFFF;" parent="1" source="16" target="54" edge="1">
                    <mxGeometry relative="1" as="geometry">
                        <mxPoint x="505" y="225" as="sourcePoint"/>
                        <mxPoint x="530" y="362.5" as="targetPoint"/>
                    </mxGeometry>
                </mxCell>
                <mxCell id="79" style="edgeStyle=orthogonalEdgeStyle;html=1;strokeColor=#E6E6E6;endArrow=none;endFill=0;exitX=0.5;exitY=1;exitDx=0;exitDy=0;exitPerimeter=0;entryX=0;entryY=0.5;entryDx=0;entryDy=0;entryPerimeter=0;fontColor=#FFFFFF;" parent="1" source="54" target="57" edge="1">
                    <mxGeometry relative="1" as="geometry">
                        <mxPoint x="505" y="225" as="sourcePoint"/>
                        <mxPoint x="530" y="442.5" as="targetPoint"/>
                    </mxGeometry>
                </mxCell>
                <mxCell id="80" style="edgeStyle=orthogonalEdgeStyle;html=1;strokeColor=#E6E6E6;endArrow=none;endFill=0;exitX=0.5;exitY=1;exitDx=0;exitDy=0;exitPerimeter=0;entryX=0;entryY=0.5;entryDx=0;entryDy=0;entryPerimeter=0;fontColor=#FFFFFF;" parent="1" source="54" target="63" edge="1">
                    <mxGeometry relative="1" as="geometry">
                        <mxPoint x="505" y="225" as="sourcePoint"/>
                        <mxPoint x="590" y="522.5" as="targetPoint"/>
                    </mxGeometry>
                </mxCell>
                <mxCell id="81" style="edgeStyle=orthogonalEdgeStyle;html=1;strokeColor=#E6E6E6;endArrow=none;endFill=0;exitX=0.5;exitY=1;exitDx=0;exitDy=0;exitPerimeter=0;entryX=0;entryY=0.5;entryDx=0;entryDy=0;entryPerimeter=0;fontColor=#FFFFFF;" parent="1" source="54" target="66" edge="1">
                    <mxGeometry relative="1" as="geometry">
                        <mxPoint x="505" y="225" as="sourcePoint"/>
                        <mxPoint x="590" y="592.5" as="targetPoint"/>
                    </mxGeometry>
                </mxCell>
                <mxCell id="82" style="edgeStyle=orthogonalEdgeStyle;html=1;strokeColor=#E6E6E6;endArrow=none;endFill=0;exitX=0.5;exitY=1;exitDx=0;exitDy=0;exitPerimeter=0;entryX=0;entryY=0.5;entryDx=0;entryDy=0;entryPerimeter=0;fontColor=#FFFFFF;" parent="1" source="54" target="69" edge="1">
                    <mxGeometry relative="1" as="geometry">
                        <mxPoint x="505" y="225" as="sourcePoint"/>
                        <mxPoint x="590" y="662.5" as="targetPoint"/>
                    </mxGeometry>
                </mxCell>
                <mxCell id="83" style="edgeStyle=orthogonalEdgeStyle;html=1;strokeColor=#E6E6E6;endArrow=none;endFill=0;exitX=0.5;exitY=1;exitDx=0;exitDy=0;exitPerimeter=0;entryX=0;entryY=0.5;entryDx=0;entryDy=0;entryPerimeter=0;fontColor=#FFFFFF;" parent="1" source="54" target="72" edge="1">
                    <mxGeometry relative="1" as="geometry">
                        <mxPoint x="505" y="225" as="sourcePoint"/>
                        <mxPoint x="590" y="732.4999999999998" as="targetPoint"/>
                    </mxGeometry>
                </mxCell>
                <mxCell id="84" value="&lt;div style=&quot;&quot;&gt;&lt;br&gt;&lt;/div&gt;" style="text;html=1;align=left;verticalAlign=middle;resizable=0;points=[];autosize=1;strokeColor=none;fillColor=none;fontColor=#FFFFFF;" parent="1" vertex="1">
                    <mxGeometry x="857" y="25" width="20" height="30" as="geometry"/>
                </mxCell>
                <mxCell id="86" value="&lt;div style=&quot;border-color: rgb(0, 0, 0); color: rgb(255, 255, 255); font-family: Helvetica; font-size: 12px; font-style: normal; font-variant-ligatures: normal; font-variant-caps: normal; font-weight: 400; letter-spacing: normal; orphans: 2; text-align: left; text-indent: 0px; text-transform: none; widows: 2; word-spacing: 0px; -webkit-text-stroke-width: 0px; text-decoration-thickness: initial; text-decoration-style: initial; text-decoration-color: initial;&quot;&gt;Trajectory files created using&amp;nbsp;&lt;span style=&quot;border-color: rgb(0, 0, 0);&quot;&gt;PathPlanner.&lt;/span&gt;&lt;/div&gt;&lt;div style=&quot;border-color: rgb(0, 0, 0); color: rgb(255, 255, 255); font-family: Helvetica; font-size: 12px; font-style: normal; font-variant-ligatures: normal; font-variant-caps: normal; font-weight: 400; letter-spacing: normal; orphans: 2; text-align: left; text-indent: 0px; text-transform: none; widows: 2; word-spacing: 0px; -webkit-text-stroke-width: 0px; text-decoration-thickness: initial; text-decoration-style: initial; text-decoration-color: initial;&quot;&gt;&lt;span style=&quot;border-color: rgb(0, 0, 0);&quot;&gt;These are automatically copied to the robot&amp;nbsp;&lt;/span&gt;&lt;span style=&quot;background-color: initial;&quot;&gt;when code is deployed.&lt;/span&gt;&lt;/div&gt;" style="text;whiteSpace=wrap;html=1;fillColor=none;" parent="1" vertex="1">
                    <mxGeometry x="850" y="7.5" width="230" height="50" as="geometry"/>
                </mxCell>
                <UserObject label="" link="./src/main/java/frc/lib/Joystick" id="89">
                    <mxCell style="sketch=0;pointerEvents=1;shadow=0;dashed=0;html=1;strokeColor=#314354;fillColor=#647687;labelPosition=center;verticalLabelPosition=bottom;verticalAlign=top;outlineConnect=0;align=center;shape=mxgraph.office.concepts.folder;fontColor=#FFFFFF;points=[[1,0.5,0,0,0]];" vertex="1" parent="1">
                        <mxGeometry x="190" y="407.5" width="50" height="45" as="geometry"/>
                    </mxCell>
                </UserObject>
                <UserObject label="&lt;b&gt;LED/&lt;/b&gt;" link="./src/main/java/frc/lib/LED" id="90">
                    <mxCell style="text;html=1;align=right;verticalAlign=middle;resizable=0;points=[];autosize=1;strokeColor=none;fillColor=none;fontColor=#FFFFFF;" vertex="1" parent="1">
                        <mxGeometry x="160" y="390" width="50" height="30" as="geometry"/>
                    </mxCell>
                </UserObject>
                <mxCell id="91" value="&lt;div style=&quot;&quot;&gt;&lt;span style=&quot;background-color: initial;&quot;&gt;Classes for interacting with&lt;/span&gt;&lt;/div&gt;&lt;div style=&quot;&quot;&gt;&lt;span style=&quot;background-color: initial;&quot;&gt;addressable LED strips&lt;/span&gt;&lt;/div&gt;" style="text;html=1;align=right;verticalAlign=middle;resizable=0;points=[];autosize=1;strokeColor=none;fillColor=none;fontColor=#FFFFFF;" vertex="1" parent="1">
                    <mxGeometry x="10" y="420" width="170" height="40" as="geometry"/>
                </mxCell>
            </root>
        </mxGraphModel>
    </diagram>
</mxfile>